{"title":"Tyler Perry's Madea's Neighbors From Hell The Play (2014) [720P]","uid":9864596,"size":3080237683,"categoryP":"video","categoryS":"hd___movies","magnet":"?xt=urn:btih:44b5ea6245c3d1cb06015c3afd20a9631e66d9b7&amp;dn=Tyler+Perry%27s+Madea%27s+Neighbors+From+Hell+The+Play+%282014%29+%5B720P%5D&amp;tr=udp%3A%2F%2Ftracker.openbittorrent.com%3A80&amp;tr=udp%3A%2F%2Fopen.demonii.com%3A1337&amp;tr=udp%3A%2F%2Ftracker.coppersurfer.tk%3A6969&amp;tr=udp%3A%2F%2Fexodus.desync.com%3A6969","seeders":28,"leechers":3,"uploader":"mbnut","files":1,"time":1396330237,"description":"General\nComplete name : Tyler Perry's Madea's Neighbors From Hell The Play FIXED MbNUT.mp4\nFormat : MPEG-4\nFormat profile : Base Media / Version 2\nCodec ID : mp42\nFile size : 2.87 GiB\nDuration : 2h 16mn\nOverall bit rate mode : Variable\nOverall bit rate : 3 001 Kbps\n\nVideo\nID : 1\nFormat : AVC\nFormat/Info : Advanced Video Codec\nFormat profile : &lt;a class=&quot;__cf_email__&quot; href=&quot;/cdn-cgi/l/email-protection&quot; data-cfemail=&quot;531b3a343b131f607d62&quot;&gt;[email&amp;#160;protected]&lt;/a&gt;&lt;script cf-hash='f9e31' type=&quot;text/javascript&quot;&gt;\n/* &lt;![CDATA[ */!function(){try{var t=&quot;currentScript&quot;in document?document.currentScript:function(){for(var t=document.getElementsByTagName(&quot;script&quot;),e=t.length;e--;)if(t[e].getAttribute(&quot;cf-hash&quot;))return t[e]}();if(t&amp;&amp;t.previousSibling){var e,r,n,i,c=t.previousSibling,a=c.getAttribute(&quot;data-cfemail&quot;);if(a){for(e=&quot;&quot;,r=parseInt(a.substr(0,2),16),n=2;a.length-n;n+=2)i=parseInt(a.substr(n,2),16)^r,e+=String.fromCharCode(i);e=document.createTextNode(e),c.parentNode.replaceChild(e,c)}}}catch(u){}}();/* ]]&gt; */&lt;/script&gt;\nFormat settings, CABAC : Yes\nFormat settings, ReFrames : 1 frame\nCodec ID : avc1\nCodec ID/Info : Advanced Video Coding\nDuration : 2h 16mn\nBit rate mode : Variable\nBit rate : 2 804 Kbps\nWidth : 1 280 pixels\nHeight : 720 pixels\nDisplay aspect ratio : 16:9\nFrame rate mode : Constant\nFrame rate : 24.000 fps\nColor space : YUV\nChroma subsampling : 4:2:0\nBit depth : 8 bits\nScan type : Progressive\nBits/(Pixel*Frame) : 0.127\nStream size : 2.68 GiB (93%)\nLanguage : English\n\nAudio\nID : 2\nFormat : AAC\nFormat/Info : Advanced Audio Codec\nFormat profile : LC\nCodec ID : 40\nDuration : 2h 7mn\nSource duration : 2h 17mn\nBit rate mode : Variable\nBit rate : 192 Kbps\nMaximum bit rate : 204 Kbps\nChannel(s) : 2 channels\nChannel positions : Front: L R\nSampling rate : 44.1 KHz\nCompression mode : Lossy\nStream size : 178 MiB (6%)\nSource stream size : 190 MiB (6%)\nLanguage : English\n","torrent":{"xt":"urn:btih:44b5ea6245c3d1cb06015c3afd20a9631e66d9b7","amp;dn":"Tyler+Perry%27s+Madea%27s+Neighbors+From+Hell+The+Play+%282014%29+%5B720P%5D","amp;tr":["udp%3A%2F%2Ftracker.openbittorrent.com%3A80","udp%3A%2F%2Fopen.demonii.com%3A1337","udp%3A%2F%2Ftracker.coppersurfer.tk%3A6969","udp%3A%2F%2Fexodus.desync.com%3A6969"],"infoHash":"44b5ea6245c3d1cb06015c3afd20a9631e66d9b7","infoHashBuffer":{"type":"Buffer","data":[68,181,234,98,69,195,209,203,6,1,92,58,253,32,169,99,30,102,217,183]},"announce":[],"urlList":[]}}